<svg width="22.023811" height="25.040573" viewBox="0 0 22.0238 25.0406" fill="none" xmlns="http://www.w3.org/2000/svg" xmlns:xlink="http://www.w3.org/1999/xlink">
	<desc>
			Created with Pixso.
	</desc>
	<path d="M22 5.36718C21.9126 4.50502 21.4469 3.98482 20.603 3.80658C19.0725 3.56479 17.5664 3.21638 16.0847 2.76138C14.6284 2.16121 13.2828 1.37081 12.0478 0.390182C11.3285 -0.130062 10.6093 -0.130062 9.89005 0.390182C8.71185 1.48522 7.35598 2.27049 5.82246 2.74599C4.41245 3.33186 2.94783 3.69564 1.42858 3.83735C0.546402 3.9806 0.0858383 4.5008 0.0468826 5.39796C0.0468826 5.39796 0 9.31436 0 12.7615C0 19.002 7.32759 25.0406 10.9923 25.0406C14.6561 25.0406 20.8671 20.7809 21.8603 12.8558C22.1091 8.17492 22 5.36718 22 5.36718ZM18.0099 10.1875L10.3551 17.4424C10.0106 17.7722 9.48434 17.8241 9.08247 17.5674L4.65797 12.9808C4.18177 12.4609 4.20235 11.9617 4.71969 11.4831C5.23702 11.0046 5.73379 11.0253 6.20998 11.5452L9.68815 15.2116L16.5813 8.65858C17.099 8.18005 17.5959 8.20088 18.0721 8.72108C18.5483 9.24128 18.5276 9.70892 18.0099 10.1875Z" fill-rule="evenodd" fill="#000000"/>
	<path d="M6.46925 6.74577C6.38331 6.82976 6.26954 6.89958 6.13966 6.89958C5.86768 6.89958 5.69141 6.69353 5.69141 6.33171C5.69141 5.97966 5.91358 5.75993 6.16163 5.75993C6.28956 5.75993 6.37159 5.80779 6.46729 5.88786L6.45753 5.69987L6.45753 5.28191L6.63966 5.28191L6.63966 6.8737L6.49122 6.8737L6.47364 6.74577L6.46925 6.74577ZM14.5276 6.74577C14.4417 6.82976 14.3279 6.89958 14.198 6.89958C13.9261 6.89958 13.7498 6.69353 13.7498 6.33171C13.7498 5.97966 13.972 5.75993 14.22 5.75993C14.3479 5.75993 14.43 5.80779 14.5257 5.88786L14.5159 5.69987L14.5159 5.28191L14.698 5.28191L14.698 6.8737L14.5496 6.8737L14.532 6.74577L14.5276 6.74577ZM12.3598 6.68962C12.2436 6.8239 12.0996 6.89958 11.9096 6.89958C11.5459 6.89958 11.2719 6.61784 11.2719 6.14177C11.2719 5.66765 11.5498 5.37956 11.9218 5.37956C12.0996 5.37956 12.2397 5.46794 12.3237 5.56169L12.2236 5.68181C12.1479 5.59978 12.0498 5.54167 11.9238 5.54167C11.646 5.54167 11.4619 5.7697 11.4619 6.13591C11.4619 6.50554 11.6377 6.73747 11.9179 6.73747C12.0576 6.73747 12.1635 6.67546 12.2578 6.5739L12.3598 6.68962ZM3.2015 6.8737L3.03353 6.8737L3.03353 5.40788L3.25716 5.40788L3.53939 6.19157C3.57357 6.29362 3.60726 6.39568 3.64339 6.49773L3.65316 6.49773C3.68734 6.39568 3.71957 6.29362 3.75326 6.19157L4.03353 5.40788L4.25716 5.40788L4.25716 6.8737L4.08334 6.8737L4.08334 6.06169C4.08334 5.93571 4.0975 5.75749 4.10726 5.62956L4.09945 5.62956L3.98324 5.96355L3.70541 6.72575L3.58138 6.72575L3.30355 5.96355L3.18734 5.62956L3.17953 5.62956C3.18734 5.75749 3.2015 5.93571 3.2015 6.06169L3.2015 6.8737ZM9.04955 6.8737L8.58178 6.8737L8.58178 5.40788L9.01781 5.40788C9.31567 5.40788 9.52172 5.50749 9.52172 5.76579C9.52172 5.91179 9.4436 6.03972 9.30541 6.08366L9.30541 6.09392C9.48168 6.12761 9.60571 6.24382 9.60571 6.44353C9.60571 6.73161 9.37768 6.8737 9.04955 6.8737ZM8.76781 5.55388L8.76781 6.03191L8.98559 6.03191C9.23754 6.03191 9.33959 5.93767 9.33959 5.78972C9.33959 5.61784 9.22143 5.55388 8.9934 5.55388L8.76781 5.55388ZM5.25135 6.74382C5.14735 6.82976 5.02528 6.89958 4.89149 6.89958C4.70936 6.89958 4.57362 6.78777 4.57362 6.59148C4.57362 6.35564 4.77918 6.23747 5.24158 6.18571C5.24158 6.04558 5.1952 5.91179 5.01746 5.91179C4.89149 5.91179 4.77723 5.96989 4.69129 6.02751L4.61951 5.90154C4.71961 5.83757 4.87342 5.75993 5.04725 5.75993C5.31141 5.75993 5.42323 5.93767 5.42323 6.20573L5.42323 6.8737L5.27332 6.8737L5.25721 6.74382L5.25135 6.74382ZM7.80744 6.78777C7.71174 6.84978 7.59553 6.89958 7.44758 6.89958C7.15949 6.89958 6.92756 6.68962 6.92756 6.33171C6.92756 5.97966 7.16535 5.75993 7.4173 5.75993C7.69367 5.75993 7.84943 5.95964 7.84943 6.2697C7.84943 6.30974 7.84553 6.34782 7.84162 6.3737L7.10969 6.3737C7.12141 6.60564 7.2635 6.75359 7.46955 6.75359C7.57551 6.75359 7.66145 6.72185 7.74152 6.66765L7.80744 6.78777ZM13.5416 6.33171C13.5416 6.69157 13.3039 6.89958 13.0377 6.89958C12.7716 6.89958 12.5338 6.69157 12.5338 6.33171C12.5338 5.96989 12.7716 5.75993 13.0377 5.75993C13.3039 5.75993 13.5416 5.96989 13.5416 6.33171ZM15.8658 6.78777C15.7701 6.84978 15.6539 6.89958 15.506 6.89958C15.2179 6.89958 14.9859 6.68962 14.9859 6.33171C14.9859 5.97966 15.2237 5.75993 15.4757 5.75993C15.7521 5.75993 15.9078 5.95964 15.9078 6.2697C15.9078 6.30974 15.9039 6.34782 15.9 6.3737L15.1681 6.3737C15.1798 6.60564 15.3219 6.75359 15.5279 6.75359C15.6339 6.75359 15.7198 6.72185 15.7999 6.66765L15.8658 6.78777ZM10.2716 6.96355C10.1954 7.1779 10.0836 7.34148 9.86779 7.34148C9.81554 7.34148 9.77355 7.33366 9.73986 7.3195L9.77551 7.17351C9.79748 7.18181 9.8297 7.19157 9.85754 7.19157C9.98156 7.19157 10.0597 7.09148 10.1036 6.95769L10.1276 6.87566L9.69152 5.78777L9.88146 5.78777L10.1036 6.39177C10.1359 6.48552 10.1735 6.59782 10.2076 6.69548L10.2174 6.69548C10.2477 6.59782 10.2794 6.48747 10.3097 6.39177L10.5035 5.78777L10.6818 5.78777L10.2716 6.96355ZM16.5718 6.8737L16.3579 6.8737L16.0561 5.78777L16.2422 5.78777L16.4038 6.4157C16.4258 6.5197 16.4477 6.61784 16.4678 6.71989L16.478 6.71989C16.5019 6.61784 16.5239 6.51775 16.5517 6.4157L16.7197 5.78777L16.8979 5.78777L17.0678 6.4157C17.0937 6.5197 17.1181 6.61784 17.144 6.71989L17.1518 6.71989C17.1758 6.61784 17.1958 6.5197 17.2197 6.4157L17.3799 5.78777L17.5517 5.78777L17.2597 6.8737L17.04 6.8737L16.8818 6.28777C16.854 6.18571 16.834 6.08562 16.8081 5.97575L16.7978 5.97575C16.7739 6.08562 16.7519 6.18767 16.7241 6.29167L16.5718 6.8737ZM18.212 6.96355C18.1358 7.1779 18.024 7.34148 17.8082 7.34148C17.7559 7.34148 17.7139 7.33366 17.6802 7.3195L17.7159 7.17351C17.7378 7.18181 17.7701 7.19157 17.7979 7.19157C17.9219 7.19157 18.0001 7.09148 18.044 6.95769L18.0679 6.87566L17.6319 5.78777L17.8218 5.78777L18.044 6.39177C18.0762 6.48552 18.1138 6.59782 18.148 6.69548L18.1578 6.69548C18.188 6.59782 18.2198 6.48747 18.2501 6.39177L18.4439 5.78777L18.6221 5.78777L18.212 6.96355ZM18.8402 6.8737L18.6479 6.8737L19.0062 6.30779L18.6762 5.78777L18.872 5.78777L19.018 6.02751C19.0521 6.08757 19.0902 6.14763 19.1259 6.20769L19.1342 6.20769C19.1679 6.14763 19.2001 6.08757 19.2318 6.02751L19.3661 5.78777L19.5561 5.78777L19.226 6.32585L19.5839 6.8737L19.3842 6.8737L19.224 6.6198C19.1879 6.55388 19.1479 6.48747 19.1083 6.42546L19.098 6.42546C19.06 6.48747 19.0238 6.55388 18.9862 6.6198L18.8402 6.8737ZM7.41975 5.90593C7.26545 5.90593 7.12971 6.02946 7.10773 6.24382L7.68928 6.24382C7.68928 6.02361 7.58967 5.90593 7.41975 5.90593ZM15.4781 5.90593C15.3238 5.90593 15.1881 6.02946 15.1661 6.24382L15.7477 6.24382C15.7477 6.02361 15.648 5.90593 15.4781 5.90593ZM12.7238 6.33171C12.7238 6.58171 12.8498 6.74773 13.0377 6.74773C13.2257 6.74773 13.3537 6.58171 13.3537 6.33171C13.3537 6.08171 13.2257 5.91179 13.0377 5.91179C12.8498 5.91179 12.7238 6.08171 12.7238 6.33171ZM5.8794 6.32976C5.8794 6.59148 5.98731 6.74773 6.1797 6.74773C6.2793 6.74773 6.36768 6.69792 6.45753 6.59782L6.45753 6.02751C6.36524 5.94548 6.2837 5.91374 6.19337 5.91374C6.01759 5.91374 5.8794 6.08171 5.8794 6.32976ZM13.9378 6.32976C13.9378 6.59148 14.0457 6.74773 14.2381 6.74773C14.3377 6.74773 14.4261 6.69792 14.5159 6.59782L14.5159 6.02751C14.4236 5.94548 14.3421 5.91374 14.2517 5.91374C14.076 5.91374 13.9378 6.08171 13.9378 6.32976ZM8.76781 6.17351L8.76781 6.72575L9.02367 6.72575C9.27563 6.72575 9.42358 6.63591 9.42358 6.43767C9.42358 6.25554 9.27953 6.17351 9.02367 6.17351L8.76781 6.17351ZM4.75135 6.57976C4.75135 6.70378 4.83533 6.75359 4.94324 6.75359C5.0492 6.75359 5.13563 6.70378 5.24158 6.60954L5.24158 6.30583C4.87537 6.34978 4.75135 6.43962 4.75135 6.57976Z" fill="#262626"/>
	<defs/>
</svg>
