<svg width="16.000000" height="16.000000" viewBox="0 0 16 16" fill="none" xmlns="http://www.w3.org/2000/svg" xmlns:xlink="http://www.w3.org/1999/xlink">
	<desc>
			Created with Pixso.
	</desc>
	<g clip-path="url(#clip3_1)">
		<path d="M12.8814 14.8802L3.08388 14.8802C1.4112 14.8802 -0.000999451 13.4251 -0.000999451 11.7035C-0.000999451 10.0997 1.22756 8.72543 2.75054 8.54778C2.83451 8.07041 3.06201 7.67577 3.43304 7.36388C3.80407 7.05199 4.23193 6.89572 4.71664 6.89506C5.01189 6.06423 5.94895 5.44364 6.66953 4.93548C7.39011 4.42732 8.19126 4.17365 9.07299 4.17446C9.64382 4.17517 10.1915 4.28814 10.716 4.51339C11.2405 4.73864 11.6995 5.05799 12.0931 5.47145C12.4867 5.88491 12.783 6.35912 12.9821 6.89408C13.1813 7.42904 13.2671 7.98161 13.2397 8.55177C14.7527 8.7394 15.9673 10.1077 15.9673 11.7045C15.9663 13.4251 14.5541 14.8802 12.8814 14.8802ZM3.08388 9.25438C1.80442 9.25438 0.724564 10.3772 0.724564 11.7035C0.724564 13.0319 1.80541 14.1547 3.08388 14.1547L12.8814 14.1547C14.1609 14.1547 15.2408 13.0319 15.2408 11.7035C15.2408 10.3772 14.1609 9.25438 12.8814 9.25438C12.9074 9.06176 12.5192 8.49289 12.5192 8.34618C12.5178 7.39476 12.1808 6.58263 11.5081 5.90978C10.8354 5.23692 10.0234 4.89967 9.072 4.89802C8.28464 4.89789 7.58012 5.1394 6.95845 5.62258C6.33678 6.10575 5.92883 6.72885 5.73462 7.49188L5.23461 7.73539C5.06966 7.66083 4.89667 7.62324 4.71564 7.62262C4.01603 7.62262 3.08388 8.55477 3.08388 9.25438Z" fill-rule="evenodd" fill="#4D4D4D"/>
		<path d="M2.74854 8.60766C2.33168 7.91575 1.81238 6.99026 1.8134 6.18248C1.81406 5.60367 1.92529 5.04695 2.14709 4.51233C2.3689 3.9777 2.68445 3.50575 3.09373 3.09647C3.50301 2.68719 3.97496 2.37164 4.50958 2.14984C5.0442 1.92803 5.60092 1.8168 6.17973 1.81614C7.85641 1.81614 9.40533 2.7942 10.1249 4.31119C9.90652 4.41416 9.57285 4.83865 9.46921 4.62057C8.80814 3.23863 7.71165 2.54534 6.17973 2.5407C5.17501 2.5418 4.31738 2.89753 3.60683 3.60788C2.89629 4.31822 2.54034 5.17576 2.53896 6.18048C2.53896 6.84416 2.71861 7.49088 3.05893 8.05576C3.13246 8.17679 2.81796 8.48423 2.74854 8.60766ZM6.23163 1.08958L5.86835 0.363026C6.11021 0.363026 6.59391 0.12117 6.59391 0.363026L6.23163 1.08958ZM0.788429 6.53278C0.533554 6.54615 0.0428391 6.42523 0.0428391 6.17L0.788429 5.80722C1.03029 5.80722 0.788429 6.29093 0.788429 6.53278ZM2.17568 2.5407L1.55591 2.07163C1.71412 1.91312 1.89811 1.41277 2.06889 1.55766C2.18333 1.67181 2.23758 2.39138 2.17568 2.5407ZM10.1598 2.5407C9.98746 2.36971 9.73097 2.09193 9.90334 1.92093C10.0747 1.75132 10.6083 1.38704 10.7796 1.55666C10.9492 1.72798 10.9492 1.89931 10.7796 2.07064L10.1598 2.5407Z" fill-rule="evenodd" fill="#4D4D4D"/>
		<path d="M4.08779 12.2391C4.01904 12.3063 3.92803 12.3621 3.82412 12.3621C3.60654 12.3621 3.46553 12.1973 3.46553 11.9078C3.46553 11.6262 3.64326 11.4504 3.8417 11.4504C3.94404 11.4504 4.00967 11.4887 4.08623 11.5528L4.07842 11.4024L4.07842 11.068L4.22412 11.068L4.22412 12.3414L4.10537 12.3414L4.09131 12.2391L4.08779 12.2391ZM10.5093 12.2391C10.4405 12.3063 10.3495 12.3621 10.2456 12.3621C10.028 12.3621 9.88699 12.1973 9.88699 11.9078C9.88699 11.6262 10.0647 11.4504 10.2632 11.4504C10.3655 11.4504 10.4311 11.4887 10.5077 11.5528L10.4999 11.4024L10.4999 11.068L10.6456 11.068L10.6456 12.3414L10.5268 12.3414L10.5128 12.2391L10.5093 12.2391ZM8.78278 12.1942C8.68981 12.3016 8.57457 12.3621 8.42262 12.3621C8.13161 12.3621 7.91247 12.1367 7.91247 11.7559C7.91247 11.3766 8.13473 11.1461 8.43239 11.1461C8.57457 11.1461 8.68668 11.2168 8.75387 11.2918L8.67379 11.3879C8.61325 11.3223 8.53473 11.2758 8.43395 11.2758C8.21168 11.2758 8.06442 11.4582 8.06442 11.7512C8.06442 12.0469 8.20504 12.2324 8.42926 12.2324C8.54098 12.2324 8.62575 12.1828 8.70114 12.1016L8.78278 12.1942ZM1.48218 12.3414L1.3478 12.3414L1.3478 11.1688L1.52671 11.1688L1.75249 11.7957C1.77983 11.8774 1.80679 11.959 1.83569 12.0406L1.8435 12.0406C1.87085 11.959 1.89663 11.8774 1.92358 11.7957L2.1478 11.1688L2.32671 11.1688L2.32671 12.3414L2.18764 12.3414L2.18764 11.6918C2.18764 11.591 2.19897 11.4485 2.20679 11.3461L2.20054 11.3461L2.10757 11.6133L1.8853 12.2231L1.78608 12.2231L1.56382 11.6133L1.47085 11.3461L1.4646 11.3461C1.47085 11.4485 1.48218 11.591 1.48218 11.6918L1.48218 12.3414ZM6.14332 12.3414L5.7691 12.3414L5.7691 11.1688L6.11792 11.1688C6.35621 11.1688 6.52105 11.2485 6.52105 11.4551C6.52105 11.5719 6.45855 11.6742 6.348 11.7094L6.348 11.7176C6.48902 11.7445 6.58824 11.8375 6.58824 11.9973C6.58824 12.2278 6.40582 12.3414 6.14332 12.3414ZM5.91792 11.2856L5.91792 11.668L6.09214 11.668C6.29371 11.668 6.37535 11.5926 6.37535 11.4742C6.37535 11.3367 6.28082 11.2856 6.09839 11.2856L5.91792 11.2856ZM3.11699 12.2375C3.03379 12.3063 2.93613 12.3621 2.8291 12.3621C2.6834 12.3621 2.5748 12.2727 2.5748 12.1156C2.5748 11.927 2.73926 11.8324 3.10918 11.791C3.10918 11.6789 3.07207 11.5719 2.92988 11.5719C2.8291 11.5719 2.73769 11.6184 2.66894 11.6645L2.61152 11.5637C2.6916 11.5125 2.81465 11.4504 2.95371 11.4504C3.16504 11.4504 3.25449 11.5926 3.25449 11.807L3.25449 12.3414L3.13457 12.3414L3.12168 12.2375L3.11699 12.2375ZM5.15448 12.2727C5.07792 12.3223 4.98495 12.3621 4.86659 12.3621C4.63612 12.3621 4.45058 12.1942 4.45058 11.9078C4.45058 11.6262 4.64081 11.4504 4.84237 11.4504C5.06347 11.4504 5.18808 11.6102 5.18808 11.8582C5.18808 11.8903 5.18495 11.9207 5.18183 11.9414L4.59628 11.9414C4.60565 12.127 4.71933 12.2453 4.88417 12.2453C4.96893 12.2453 5.03768 12.2199 5.10175 12.1766L5.15448 12.2727ZM9.72425 11.9078C9.72425 12.1957 9.53401 12.3621 9.32112 12.3621C9.10823 12.3621 8.918 12.1957 8.918 11.9078C8.918 11.6184 9.10823 11.4504 9.32112 11.4504C9.53401 11.4504 9.72425 11.6184 9.72425 11.9078ZM11.5759 12.2727C11.4994 12.3223 11.4064 12.3621 11.2881 12.3621C11.0576 12.3621 10.872 12.1942 10.872 11.9078C10.872 11.6262 11.0623 11.4504 11.2638 11.4504C11.4849 11.4504 11.6095 11.6102 11.6095 11.8582C11.6095 11.8903 11.6064 11.9207 11.6033 11.9414L11.0177 11.9414C11.0271 12.127 11.1408 12.2453 11.3056 12.2453C11.3904 12.2453 11.4591 12.2199 11.5232 12.1766L11.5759 12.2727ZM7.11685 12.4133C7.05592 12.5848 6.96646 12.7156 6.79381 12.7156C6.75201 12.7156 6.71842 12.7094 6.69146 12.6981L6.71998 12.5813C6.73756 12.5879 6.76334 12.5957 6.7856 12.5957C6.88482 12.5957 6.94732 12.5156 6.98248 12.4086L7.00162 12.343L6.65279 11.4727L6.80474 11.4727L6.98248 11.9559C7.00826 12.0309 7.03834 12.1207 7.06568 12.1988L7.07349 12.1988C7.09771 12.1207 7.1231 12.0324 7.14732 11.9559L7.3024 11.4727L7.44498 11.4727L7.11685 12.4133ZM12.1372 12.3414L11.9661 12.3414L11.7247 11.4727L11.8736 11.4727L12.0029 11.975C12.0204 12.0582 12.038 12.1367 12.054 12.2184L12.0622 12.2184C12.0814 12.1367 12.099 12.0567 12.1212 11.975L12.2556 11.4727L12.3982 11.4727L12.5341 11.975C12.5548 12.0582 12.5743 12.1367 12.595 12.2184L12.6013 12.2184C12.6204 12.1367 12.6365 12.0582 12.6556 11.975L12.7837 11.4727L12.9212 11.4727L12.6876 12.3414L12.5118 12.3414L12.3853 11.8727C12.363 11.791 12.347 11.711 12.3263 11.6231L12.3181 11.6231C12.299 11.711 12.2814 11.7926 12.2591 11.8758L12.1372 12.3414ZM13.4444 12.4133C13.3834 12.5848 13.294 12.7156 13.1213 12.7156C13.0795 12.7156 13.0459 12.7094 13.019 12.6981L13.0475 12.5813C13.0651 12.5879 13.0909 12.5957 13.1131 12.5957C13.2124 12.5957 13.2749 12.5156 13.31 12.4086L13.3291 12.343L12.9803 11.4727L13.1323 11.4727L13.31 11.9559C13.3358 12.0309 13.3659 12.1207 13.3932 12.1988L13.401 12.1988C13.4252 12.1207 13.4506 12.0324 13.4749 11.9559L13.6299 11.4727L13.7725 11.4727L13.4444 12.4133ZM13.9437 12.3414L13.7898 12.3414L14.0765 11.8887L13.8125 11.4727L13.9691 11.4727L14.0859 11.6645C14.1133 11.7125 14.1437 11.7606 14.1722 11.8086L14.1789 11.8086C14.2058 11.7606 14.2316 11.7125 14.257 11.6645L14.3644 11.4727L14.5164 11.4727L14.2523 11.9031L14.5387 12.3414L14.3789 12.3414L14.2508 12.1383C14.2219 12.0856 14.1898 12.0324 14.1582 11.9828L14.15 11.9828C14.1195 12.0324 14.0906 12.0856 14.0605 12.1383L13.9437 12.3414ZM4.84433 11.5672C4.72089 11.5672 4.61229 11.666 4.59472 11.8375L5.05995 11.8375C5.05995 11.6613 4.98026 11.5672 4.84433 11.5672ZM11.2658 11.5672C11.1424 11.5672 11.0338 11.666 11.0162 11.8375L11.4814 11.8375C11.4814 11.6613 11.4017 11.5672 11.2658 11.5672ZM9.06995 11.9078C9.06995 12.1078 9.17073 12.2406 9.32112 12.2406C9.47151 12.2406 9.57386 12.1078 9.57386 11.9078C9.57386 11.7078 9.47151 11.5719 9.32112 11.5719C9.17073 11.5719 9.06995 11.7078 9.06995 11.9078ZM3.61592 11.9063C3.61592 12.1156 3.70224 12.2406 3.85615 12.2406C3.93584 12.2406 4.00654 12.2008 4.07842 12.1207L4.07842 11.6645C4.00459 11.5988 3.93935 11.5735 3.86709 11.5735C3.72646 11.5735 3.61592 11.7078 3.61592 11.9063ZM10.0374 11.9063C10.0374 12.1156 10.1237 12.2406 10.2776 12.2406C10.3573 12.2406 10.428 12.2008 10.4999 12.1207L10.4999 11.6645C10.4261 11.5988 10.3608 11.5735 10.2886 11.5735C10.1479 11.5735 10.0374 11.7078 10.0374 11.9063ZM5.91792 11.7813L5.91792 12.2231L6.12261 12.2231C6.32417 12.2231 6.44253 12.1512 6.44253 11.9926C6.44253 11.8469 6.3273 11.7813 6.12261 11.7813L5.91792 11.7813ZM2.71699 12.1063C2.71699 12.2055 2.78418 12.2453 2.87051 12.2453C2.95527 12.2453 3.02441 12.2055 3.10918 12.1301L3.10918 11.8871C2.81621 11.9223 2.71699 11.9942 2.71699 12.1063Z" fill="#F7F7F7"/>
	</g>
	<defs>
		<clipPath id="clip3_1">
			<rect width="16.000000" height="16.000000" fill="white"/>
		</clipPath>
	</defs>
</svg>
